<svg xmlns="http://www.w3.org/2000/svg" xmlns:xlink="http://www.w3.org/1999/xlink" width="495" zoomAndPan="magnify" viewBox="0 0 371.25 74.249996" height="99" preserveAspectRatio="xMidYMid meet" version="1.0"><defs><g/><clipPath id="e0fa2553a6"><path d="M 266 16 L 279.667969 16 L 279.667969 49 L 266 49 Z M 266 16 " clip-rule="nonzero"/></clipPath><clipPath id="dd914800a6"><path d="M 242 4.082031 L 264 4.082031 L 264 11 L 242 11 Z M 242 4.082031 " clip-rule="nonzero"/></clipPath><clipPath id="c0655aaaca"><path d="M 234.375 17 L 255 17 L 255 51 L 234.375 51 Z M 234.375 17 " clip-rule="nonzero"/></clipPath><clipPath id="15fb60c31b"><path d="M 234.375 13 L 276 13 L 276 46 L 234.375 46 Z M 234.375 13 " clip-rule="nonzero"/></clipPath><clipPath id="2c84b81b21"><path d="M 266 4.082031 L 274 4.082031 L 274 11 L 266 11 Z M 266 4.082031 " clip-rule="nonzero"/></clipPath><clipPath id="07a333283e"><path d="M 256 45 L 265 45 L 265 53.828125 L 256 53.828125 Z M 256 45 " clip-rule="nonzero"/></clipPath></defs><g clip-path="url(#e0fa2553a6)"><path fill="#ffffff" d="M 276.921875 16.855469 L 276.871094 16.765625 L 276.457031 16.996094 L 276.507812 17.085938 C 278.261719 20.339844 279.1875 24.03125 279.1875 27.75 C 279.1875 36.507812 274.082031 44.507812 266.175781 48.128906 L 266.085938 48.167969 L 266.285156 48.597656 L 266.371094 48.554688 C 274.445312 44.875 279.664062 36.695312 279.664062 27.75 C 279.664062 23.949219 278.714844 20.179688 276.921875 16.855469 Z M 276.921875 16.855469 " fill-opacity="1" fill-rule="nonzero"/></g><g clip-path="url(#dd914800a6)"><path fill="#ffffff" d="M 257.027344 4.90625 C 251.710938 4.90625 246.546875 6.796875 242.484375 10.242188 L 242.40625 10.300781 L 242.710938 10.667969 L 242.789062 10.609375 C 246.773438 7.234375 251.832031 5.386719 257.027344 5.386719 C 259.285156 5.386719 261.511719 5.722656 263.652344 6.398438 L 263.75 6.429688 L 263.886719 5.972656 L 263.789062 5.941406 C 261.609375 5.253906 259.332031 4.90625 257.027344 4.90625 Z M 257.027344 4.90625 " fill-opacity="1" fill-rule="nonzero"/></g><g clip-path="url(#c0655aaaca)"><path fill="#ffffff" d="M 234.851562 27.75 C 234.851562 24.148438 235.671875 20.71875 237.289062 17.542969 L 237.335938 17.453125 L 236.921875 17.234375 L 236.875 17.324219 C 235.21875 20.578125 234.378906 24.082031 234.378906 27.75 C 234.378906 39.132812 242.789062 48.863281 253.949219 50.386719 L 254.046875 50.398438 L 254.109375 49.929688 L 254.007812 49.917969 C 243.09375 48.425781 234.851562 38.90625 234.851562 27.75 Z M 234.851562 27.75 " fill-opacity="1" fill-rule="nonzero"/></g><g clip-path="url(#15fb60c31b)"><path fill="#ffffff" d="M 275.511719 24.082031 C 275.609375 23.253906 275.296875 20.558594 275.207031 19.839844 L 275.394531 18.847656 C 275.480469 18.390625 275.394531 17.921875 275.15625 17.523438 L 274.289062 16.089844 C 274.003906 15.625 270.425781 13.394531 270.226562 13.335938 C 269.722656 13.183594 269.191406 13.246094 268.738281 13.503906 C 268.304688 13.753906 265.070312 14.996094 263.011719 15.761719 C 262.546875 15.921875 262.144531 16.210938 261.835938 16.597656 L 255.8125 24.191406 C 255.171875 24.996094 254.324219 25.621094 253.367188 25.992188 C 253.367188 25.992188 253.359375 25.992188 253.359375 25.992188 L 235.140625 33.523438 C 234.933594 33.613281 234.824219 33.839844 234.882812 34.058594 C 236.054688 38.328125 238.402344 42.148438 241.683594 45.113281 C 241.773438 45.191406 241.871094 45.222656 241.980469 45.222656 C 242.070312 45.222656 242.167969 45.191406 242.246094 45.132812 L 259.078125 32.398438 L 263.347656 31.3125 C 266.429688 30.527344 269.144531 28.519531 270.820312 25.78125 C 270.828125 25.78125 270.828125 25.78125 270.839844 25.78125 C 271.273438 25.78125 272.140625 25.75 272.949219 25.523438 C 273.304688 26.410156 274.320312 27.34375 274.960938 27.5625 L 275.167969 27.632812 C 275.304688 27.683594 275.453125 27.660156 275.570312 27.574219 C 275.6875 27.492188 275.757812 27.355469 275.757812 27.203125 C 275.75 27.132812 275.75 25.292969 275.511719 24.082031 Z M 273.699219 24.9375 C 273.699219 24.785156 273.617188 24.65625 273.5 24.578125 C 273.382812 24.496094 273.222656 24.476562 273.097656 24.539062 C 272.070312 24.957031 270.613281 24.886719 270.59375 24.886719 C 270.425781 24.875 270.265625 24.964844 270.1875 25.105469 C 268.648438 27.75 266.078125 29.703125 263.128906 30.449219 L 258.769531 31.550781 C 258.710938 31.5625 258.664062 31.59375 258.613281 31.632812 L 242.011719 44.199219 C 239.09375 41.472656 236.972656 38.03125 235.847656 34.199219 L 253.683594 26.828125 C 254.789062 26.398438 255.765625 25.683594 256.503906 24.757812 L 262.527344 17.164062 C 262.722656 16.917969 262.992188 16.71875 263.304688 16.609375 C 263.839844 16.410156 268.542969 14.65625 269.183594 14.289062 C 269.417969 14.152344 269.683594 14.121094 269.953125 14.191406 C 270.386719 14.410156 273.214844 16.25 273.550781 16.589844 L 274.40625 18 C 274.425781 18.03125 274.4375 18.0625 274.457031 18.089844 L 270.75 15.960938 C 270.414062 15.773438 270.019531 15.722656 269.65625 15.832031 L 266.785156 16.65625 C 266.886719 17.015625 267.261719 17.226562 267.613281 17.117188 L 269.84375 16.46875 C 270.039062 16.410156 270.246094 16.4375 270.425781 16.539062 L 274.09375 18.636719 C 274.230469 18.71875 274.386719 18.738281 274.535156 18.71875 L 274.339844 19.742188 C 274.328125 19.792969 274.328125 19.832031 274.339844 19.882812 C 274.378906 20.179688 274.40625 20.476562 274.445312 20.785156 L 271.390625 18.917969 C 271.054688 18.726562 270.660156 18.675781 270.296875 18.785156 L 267.425781 19.613281 C 267.527344 19.972656 267.902344 20.179688 268.253906 20.070312 L 270.484375 19.421875 C 270.679688 19.363281 270.886719 19.394531 271.066406 19.492188 L 274.121094 21.402344 C 274.238281 21.472656 274.378906 21.484375 274.496094 21.472656 C 274.574219 22.269531 274.632812 22.996094 274.644531 23.464844 L 274.40625 23.164062 C 274.28125 23.003906 274.132812 22.875 273.953125 22.785156 L 271.675781 21.574219 C 271.320312 21.382812 270.917969 21.355469 270.542969 21.472656 L 267.59375 22.4375 C 267.695312 22.738281 268 22.894531 268.296875 22.796875 L 270.71875 22 C 270.957031 21.921875 271.203125 21.949219 271.421875 22.058594 L 273.699219 23.273438 C 273.804688 23.332031 273.90625 23.414062 273.984375 23.511719 L 274.4375 24.082031 C 274.496094 24.160156 274.574219 24.210938 274.652344 24.238281 C 274.792969 24.914062 274.839844 25.839844 274.859375 26.46875 C 274.308594 26.089844 273.71875 25.332031 273.699219 24.9375 Z M 273.699219 24.9375 " fill-opacity="1" fill-rule="nonzero"/></g><path fill="#ff5757" d="M 270.78125 13.472656 C 270.671875 13.492188 270.574219 13.535156 270.472656 13.59375 C 270.867188 13.683594 271.234375 14.101562 271.339844 14.65625 C 271.46875 15.335938 271.195312 15.953125 270.710938 16.070312 C 270.898438 16.160156 271.09375 16.191406 271.292969 16.152344 C 271.882812 16.03125 272.257812 15.335938 272.109375 14.597656 C 271.972656 13.863281 271.382812 13.355469 270.78125 13.472656 Z M 270.78125 13.472656 " fill-opacity="1" fill-rule="nonzero"/><g clip-path="url(#2c84b81b21)"><path fill="#ff5757" d="M 273.460938 7.324219 C 272.03125 6.617188 270.847656 5.484375 270.078125 4.082031 C 269.308594 5.484375 268.128906 6.617188 266.699219 7.324219 C 268.128906 8.03125 269.308594 9.164062 270.078125 10.570312 C 270.847656 9.164062 272.03125 8.03125 273.460938 7.324219 Z M 273.460938 7.324219 " fill-opacity="1" fill-rule="nonzero"/></g><path fill="#ff5757" d="M 276.824219 12.328125 C 275.984375 11.910156 275.296875 11.253906 274.839844 10.429688 C 274.386719 11.246094 273.699219 11.910156 272.859375 12.328125 C 273.699219 12.746094 274.386719 13.40625 274.839844 14.230469 C 275.296875 13.40625 275.984375 12.746094 276.824219 12.328125 Z M 276.824219 12.328125 " fill-opacity="1" fill-rule="nonzero"/><g clip-path="url(#07a333283e)"><path fill="#ff5757" d="M 264.648438 49.730469 C 262.84375 48.835938 261.34375 47.402344 260.378906 45.628906 C 259.402344 47.402344 257.914062 48.835938 256.109375 49.730469 C 257.914062 50.625 259.410156 52.058594 260.378906 53.828125 C 261.355469 52.058594 262.84375 50.625 264.648438 49.730469 Z M 264.648438 49.730469 " fill-opacity="1" fill-rule="nonzero"/></g><path fill="#ff5757" d="M 267.261719 42.417969 C 266.15625 41.871094 265.25 40.996094 264.65625 39.910156 C 264.066406 40.996094 263.148438 41.859375 262.042969 42.417969 C 263.148438 42.964844 264.054688 43.839844 264.65625 44.925781 C 265.238281 43.839844 266.15625 42.964844 267.261719 42.417969 Z M 267.261719 42.417969 " fill-opacity="1" fill-rule="nonzero"/><path fill="#ff5757" d="M 259.53125 38.496094 C 258.9375 38.207031 258.457031 37.742188 258.140625 37.164062 C 257.824219 37.742188 257.339844 38.207031 256.75 38.496094 C 257.339844 38.785156 257.824219 39.253906 258.140625 39.832031 C 258.464844 39.253906 258.949219 38.785156 259.53125 38.496094 Z M 259.53125 38.496094 " fill-opacity="1" fill-rule="nonzero"/><path fill="#ff5757" d="M 246.96875 22.390625 C 245.785156 21.800781 244.8125 20.867188 244.179688 19.710938 C 243.546875 20.867188 242.574219 21.800781 241.390625 22.390625 C 242.574219 22.976562 243.546875 23.910156 244.179688 25.066406 C 244.8125 23.910156 245.785156 22.976562 246.96875 22.390625 Z M 246.96875 22.390625 " fill-opacity="1" fill-rule="nonzero"/><path fill="#ff5757" d="M 244.996094 14.546875 C 243.074219 13.59375 241.488281 12.070312 240.453125 10.179688 C 239.417969 12.0625 237.832031 13.59375 235.90625 14.546875 C 237.832031 15.503906 239.417969 17.027344 240.453125 18.917969 C 241.488281 17.027344 243.085938 15.503906 244.996094 14.546875 Z M 244.996094 14.546875 " fill-opacity="1" fill-rule="nonzero"/><path fill="#ff5757" d="M 245.511719 35.023438 C 244.210938 32.011719 244.386719 29.015625 245.875 28.167969 C 244.96875 27.660156 244.070312 27.511719 243.3125 27.851562 C 241.332031 28.714844 241.054688 32.488281 242.679688 36.269531 C 244.308594 40.050781 247.234375 42.40625 249.21875 41.542969 C 249.976562 41.214844 250.480469 40.445312 250.734375 39.433594 C 249.109375 39.949219 246.8125 38.039062 245.511719 35.023438 Z M 245.511719 35.023438 " fill-opacity="1" fill-rule="nonzero"/><path fill="#ff5757" d="M 249.445312 33.023438 C 248.28125 30.328125 248.4375 27.640625 249.769531 26.886719 C 248.953125 26.429688 248.152344 26.300781 247.472656 26.597656 C 245.699219 27.375 245.453125 30.746094 246.902344 34.128906 C 248.359375 37.511719 250.980469 39.621094 252.746094 38.84375 C 253.425781 38.546875 253.882812 37.871094 254.097656 36.953125 C 252.667969 37.441406 250.609375 35.722656 249.445312 33.023438 Z M 249.445312 33.023438 " fill-opacity="1" fill-rule="nonzero"/><g fill="#fff7f0" fill-opacity="1"><g transform="translate(63.141114, 42.775705)"><g><path d="M 14.648438 -9.210938 C 12.847656 -8.71875 10.933594 -7.980469 9.15625 -6.96875 C 8.609375 -8.089844 7.542969 -8.445312 6.339844 -8.335938 C 7.898438 -10.113281 9.375 -12.328125 8.609375 -14.320312 C 7.1875 -17.902344 3.171875 -15.441406 2.023438 -13.035156 C 1.886719 -12.957031 1.75 -12.820312 1.695312 -12.628906 C 0.683594 -8.910156 -0.492188 -5.246094 -1.695312 -1.613281 C -1.96875 -0.765625 -0.628906 -0.410156 -0.382812 -1.230469 C 0.792969 -4.835938 1.941406 -8.417969 2.925781 -12.054688 C 2.980469 -12.109375 3.035156 -12.191406 3.089844 -12.273438 C 3.554688 -13.308594 4.699219 -14.949219 6.066406 -14.8125 C 6.96875 -14.703125 7.433594 -13.746094 7.378906 -12.984375 C 7.351562 -12.4375 7.078125 -11.917969 6.804688 -11.453125 C 5.957031 -9.921875 4.726562 -8.636719 3.5 -7.378906 C 2.953125 -6.804688 3.664062 -5.929688 4.34375 -6.285156 C 5.246094 -6.777344 6.859375 -7.679688 7.734375 -6.695312 C 7.84375 -6.585938 7.898438 -6.449219 7.980469 -6.285156 C 5.710938 -4.890625 3.691406 -3.089844 2.378906 -1.039062 C 1.722656 0 0.300781 2.378906 1.476562 3.554688 C 2.378906 4.425781 3.882812 3.691406 4.753906 3.144531 C 7.515625 1.449219 9.59375 -2.050781 9.484375 -5.355469 C 9.484375 -5.382812 9.484375 -5.410156 9.484375 -5.464844 C 11.234375 -6.449219 13.089844 -7.269531 15.003906 -7.898438 C 15.824219 -8.171875 15.496094 -9.429688 14.648438 -9.210938 Z M 8.007812 -4.046875 C 7.597656 -1.695312 6.203125 0.519531 4.210938 1.832031 C 3.910156 2.050781 3.117188 2.625 2.734375 2.515625 C 2.160156 2.351562 2.679688 1.449219 2.871094 0.984375 C 3.582031 -0.601562 4.699219 -1.886719 6.011719 -3.007812 C 6.667969 -3.582031 7.378906 -4.101562 8.089844 -4.589844 C 8.0625 -4.398438 8.035156 -4.210938 8.007812 -4.046875 Z M 8.007812 -4.046875 "/></g></g></g><g fill="#fff7f0" fill-opacity="1"><g transform="translate(77.321043, 42.775705)"><g><path d="M 5.300781 -8.28125 C 4.507812 -7.1875 3.636719 -6.011719 2.488281 -5.21875 C 1.75 -4.726562 1.148438 -4.617188 1.230469 -5.683594 C 1.394531 -7.40625 2.351562 -9.074219 2.980469 -10.660156 C 3.308594 -11.507812 1.96875 -11.863281 1.640625 -11.042969 C 1.148438 -9.785156 0.546875 -8.554688 0.164062 -7.242188 C -0.109375 -6.257812 -0.464844 -4.945312 0.246094 -4.074219 C 2.1875 -1.613281 5.601562 -6.285156 6.503906 -7.597656 C 7.023438 -8.335938 5.847656 -8.992188 5.300781 -8.28125 Z M 3.117188 -13.144531 C 3.117188 -13.144531 3.144531 -13.144531 3.171875 -13.144531 C 3.527344 -13.199219 3.882812 -13.445312 3.855469 -13.855469 C 3.855469 -14.210938 3.554688 -14.59375 3.171875 -14.566406 C 3.144531 -14.566406 3.117188 -14.566406 3.117188 -14.539062 C 2.734375 -14.511719 2.378906 -14.265625 2.40625 -13.855469 C 2.433594 -13.5 2.707031 -13.117188 3.117188 -13.144531 Z M 3.117188 -13.144531 "/></g></g></g><g fill="#fff7f0" fill-opacity="1"><g transform="translate(82.375539, 42.775705)"><g><path d="M 10.605469 -7.351562 C 10.085938 -6.449219 8.9375 -4.589844 7.789062 -4.863281 C 6.09375 -5.246094 6.914062 -7.898438 7.652344 -9.675781 C 7.898438 -10.195312 8.117188 -10.632812 8.253906 -10.960938 C 8.636719 -11.753906 7.460938 -12.464844 7.078125 -11.644531 C 6.96875 -11.480469 6.859375 -11.261719 6.75 -11.015625 C 3.308594 -12.929688 -2.378906 -7.351562 0.765625 -4.34375 C 2.460938 -2.761719 4.101562 -3.9375 5.4375 -5.765625 C 5.519531 -4.78125 5.957031 -3.910156 6.941406 -3.417969 C 8.9375 -2.40625 10.988281 -5.21875 11.808594 -6.667969 C 12.246094 -7.433594 11.042969 -8.144531 10.605469 -7.351562 Z M 3.199219 -5.410156 C 1.285156 -4.101562 1.09375 -6.832031 1.886719 -8.035156 C 2.789062 -9.402344 4.644531 -10.714844 6.230469 -9.8125 C 5.464844 -8.117188 4.5625 -6.339844 3.199219 -5.410156 Z M 3.199219 -5.410156 "/></g></g></g><g fill="#fff7f0" fill-opacity="1"><g transform="translate(92.97633, 42.775705)"><g><path d="M 5.027344 -11.917969 C 3.992188 -12.082031 3.117188 -11.726562 2.378906 -11.042969 C 2.40625 -11.398438 2.40625 -11.726562 2.324219 -12.027344 C 2.105469 -12.875 0.902344 -12.519531 1.066406 -11.699219 C 1.257812 -10.660156 0.546875 -8.992188 0.246094 -8.007812 C 0.0820312 -7.351562 -0.109375 -6.695312 -0.328125 -6.039062 C -0.492188 -5.574219 -0.628906 -5.109375 -0.738281 -4.726562 C -0.847656 -4.453125 -0.929688 -4.183594 -1.011719 -3.9375 C -1.3125 -3.089844 0.0273438 -2.734375 0.328125 -3.582031 C 0.628906 -4.507812 0.929688 -5.4375 1.230469 -6.394531 C 1.804688 -7.980469 2.570312 -9.566406 3.882812 -10.304688 C 5.382812 -11.125 5.328125 -9.675781 5.164062 -8.609375 C 4.890625 -6.914062 4.210938 -5.273438 3.527344 -3.71875 C 3.199219 -2.925781 4.371094 -2.214844 4.726562 -3.035156 C 5.382812 -4.589844 8.636719 -11.34375 5.027344 -11.917969 Z M 5.027344 -11.917969 "/></g></g></g><g fill="#fff7f0" fill-opacity="1"><g transform="translate(100.681024, 42.775705)"><g><path d="M 3.363281 -11.398438 C 1.777344 -10.441406 0.574219 -8.882812 0.246094 -7.050781 C -0.136719 -5.054688 1.066406 -3.554688 3.144531 -3.527344 C 5.574219 -3.5 7.761719 -5.4375 9.320312 -7.105469 C 9.921875 -7.761719 8.9375 -8.746094 8.335938 -8.089844 C 7.40625 -7.078125 6.394531 -6.148438 5.164062 -5.492188 C 3.855469 -4.808594 1.285156 -4.453125 1.585938 -6.695312 C 1.695312 -7.625 2.1875 -8.554688 2.84375 -9.238281 C 3.363281 -9.785156 5 -11.425781 5.328125 -10.113281 C 5.464844 -9.539062 6.476562 -9.648438 6.394531 -10.277344 C 6.175781 -12.054688 4.753906 -12.273438 3.363281 -11.398438 Z M 3.363281 -11.398438 "/></g></g></g><g fill="#fff7f0" fill-opacity="1"><g transform="translate(108.986802, 42.775705)"><g><path d="M 10.605469 -7.351562 C 10.085938 -6.449219 8.9375 -4.589844 7.789062 -4.863281 C 6.09375 -5.246094 6.914062 -7.898438 7.652344 -9.675781 C 7.898438 -10.195312 8.117188 -10.632812 8.253906 -10.960938 C 8.636719 -11.753906 7.460938 -12.464844 7.078125 -11.644531 C 6.96875 -11.480469 6.859375 -11.261719 6.75 -11.015625 C 3.308594 -12.929688 -2.378906 -7.351562 0.765625 -4.34375 C 2.460938 -2.761719 4.101562 -3.9375 5.4375 -5.765625 C 5.519531 -4.78125 5.957031 -3.910156 6.941406 -3.417969 C 8.9375 -2.40625 10.988281 -5.21875 11.808594 -6.667969 C 12.246094 -7.433594 11.042969 -8.144531 10.605469 -7.351562 Z M 3.199219 -5.410156 C 1.285156 -4.101562 1.09375 -6.832031 1.886719 -8.035156 C 2.789062 -9.402344 4.644531 -10.714844 6.230469 -9.8125 C 5.464844 -8.117188 4.5625 -6.339844 3.199219 -5.410156 Z M 3.199219 -5.410156 "/></g></g></g><g fill="#fff7f0" fill-opacity="1"><g transform="translate(119.587593, 42.775705)"><g/></g></g><g fill="#fff7f0" fill-opacity="1"><g transform="translate(125.270488, 42.775705)"><g><path d="M 7.214844 -4.480469 C 5.136719 -3.390625 2.816406 -2.269531 0.519531 -1.613281 C 1.941406 -6.722656 3.445312 -11.835938 4.808594 -17 C 5.027344 -17.847656 3.71875 -18.203125 3.5 -17.355469 C 2.023438 -11.835938 0.355469 -6.339844 -1.148438 -0.820312 C -1.3125 -0.273438 -0.820312 0.136719 -0.300781 0.0273438 C 2.488281 -0.546875 5.410156 -1.941406 7.925781 -3.28125 C 8.71875 -3.691406 8.007812 -4.890625 7.214844 -4.480469 Z M 7.214844 -4.480469 "/></g></g></g><g fill="#fff7f0" fill-opacity="1"><g transform="translate(134.423236, 42.775705)"><g><path d="M 5.300781 -8.28125 C 4.507812 -7.1875 3.636719 -6.011719 2.488281 -5.21875 C 1.75 -4.726562 1.148438 -4.617188 1.230469 -5.683594 C 1.394531 -7.40625 2.351562 -9.074219 2.980469 -10.660156 C 3.308594 -11.507812 1.96875 -11.863281 1.640625 -11.042969 C 1.148438 -9.785156 0.546875 -8.554688 0.164062 -7.242188 C -0.109375 -6.257812 -0.464844 -4.945312 0.246094 -4.074219 C 2.1875 -1.613281 5.601562 -6.285156 6.503906 -7.597656 C 7.023438 -8.335938 5.847656 -8.992188 5.300781 -8.28125 Z M 3.117188 -13.144531 C 3.117188 -13.144531 3.144531 -13.144531 3.171875 -13.144531 C 3.527344 -13.199219 3.882812 -13.445312 3.855469 -13.855469 C 3.855469 -14.210938 3.554688 -14.59375 3.171875 -14.566406 C 3.144531 -14.566406 3.117188 -14.566406 3.117188 -14.539062 C 2.734375 -14.511719 2.378906 -14.265625 2.40625 -13.855469 C 2.433594 -13.5 2.707031 -13.117188 3.117188 -13.144531 Z M 3.117188 -13.144531 "/></g></g></g><g fill="#fff7f0" fill-opacity="1"><g transform="translate(139.477733, 42.775705)"><g><path d="M 8.609375 -11.753906 C 7.324219 -12.273438 6.203125 -11.316406 5.300781 -9.949219 C 5.21875 -10.195312 5.136719 -10.441406 4.972656 -10.660156 C 4.074219 -12.027344 2.871094 -11.480469 1.914062 -10.496094 C 1.914062 -10.878906 1.914062 -11.261719 1.859375 -11.644531 C 1.75 -12.4375 0.492188 -12.492188 0.574219 -11.644531 C 0.820312 -8.636719 -0.574219 -5.601562 -1.476562 -2.789062 C -1.75 -1.941406 -0.410156 -1.585938 -0.136719 -2.433594 C 0.4375 -4.210938 1.203125 -6.09375 1.613281 -8.007812 C 1.96875 -8.527344 2.460938 -9.292969 2.898438 -9.59375 C 4.265625 -10.496094 3.992188 -8.992188 3.882812 -8.171875 C 3.636719 -6.558594 3.0625 -5 2.679688 -3.417969 C 2.488281 -2.570312 3.773438 -2.214844 4.019531 -3.0625 C 4.265625 -3.9375 4.535156 -4.835938 4.78125 -5.738281 C 5.574219 -7.734375 6.96875 -10.660156 8.089844 -10.195312 C 9.101562 -9.757812 8.308594 -6.148438 8.144531 -5.382812 C 7.761719 -3.773438 7.132812 -2.242188 6.449219 -0.738281 C 6.066406 0.0546875 7.242188 0.765625 7.625 -0.0273438 C 8.691406 -2.214844 9.539062 -4.507812 9.8125 -6.914062 C 9.976562 -8.28125 10.304688 -11.097656 8.609375 -11.753906 Z M 8.609375 -11.753906 "/></g></g></g><g fill="#fff7f0" fill-opacity="1"><g transform="translate(150.734239, 42.775705)"><g><path d="M 10.605469 -7.351562 C 10.085938 -6.449219 8.9375 -4.589844 7.789062 -4.863281 C 6.09375 -5.246094 6.914062 -7.898438 7.652344 -9.675781 C 7.898438 -10.195312 8.117188 -10.632812 8.253906 -10.960938 C 8.636719 -11.753906 7.460938 -12.464844 7.078125 -11.644531 C 6.96875 -11.480469 6.859375 -11.261719 6.75 -11.015625 C 3.308594 -12.929688 -2.378906 -7.351562 0.765625 -4.34375 C 2.460938 -2.761719 4.101562 -3.9375 5.4375 -5.765625 C 5.519531 -4.78125 5.957031 -3.910156 6.941406 -3.417969 C 8.9375 -2.40625 10.988281 -5.21875 11.808594 -6.667969 C 12.246094 -7.433594 11.042969 -8.144531 10.605469 -7.351562 Z M 3.199219 -5.410156 C 1.285156 -4.101562 1.09375 -6.832031 1.886719 -8.035156 C 2.789062 -9.402344 4.644531 -10.714844 6.230469 -9.8125 C 5.464844 -8.117188 4.5625 -6.339844 3.199219 -5.410156 Z M 3.199219 -5.410156 "/></g></g></g><g fill="#ffecf9" fill-opacity="1"><g transform="translate(143.525912, 53.192218)"><g><path d="M 0.910156 0.546875 C 0.910156 1.59375 0.472656 1.839844 -0.359375 1.839844 C -0.632812 1.839844 -0.957031 1.78125 -1.070312 1.730469 L -1.070312 2.488281 C -0.96875 2.527344 -0.671875 2.625 -0.148438 2.625 C 0.96875 2.625 1.78125 2.089844 1.78125 0.660156 L 1.78125 -6.59375 L 0.910156 -6.59375 Z M 1.902344 -9.269531 L 0.785156 -9.269531 L 0.785156 -8.152344 L 1.902344 -8.152344 Z M 1.902344 -9.269531 "/></g></g></g><g fill="#ffecf9" fill-opacity="1"><g transform="translate(146.212297, 53.192218)"><g><path d="M 3.386719 0.136719 C 5.324219 0.136719 6.160156 -1.320312 6.160156 -3.148438 L 6.160156 -3.445312 C 6.160156 -5.277344 5.324219 -6.730469 3.386719 -6.730469 C 1.445312 -6.730469 0.609375 -5.277344 0.609375 -3.445312 L 0.609375 -3.148438 C 0.609375 -1.320312 1.445312 0.136719 3.386719 0.136719 Z M 3.386719 -0.648438 C 2.078125 -0.648438 1.492188 -1.644531 1.492188 -3.148438 L 1.492188 -3.445312 C 1.492188 -4.953125 2.078125 -5.949219 3.386719 -5.949219 C 4.691406 -5.949219 5.277344 -4.953125 5.277344 -3.445312 L 5.277344 -3.148438 C 5.277344 -1.644531 4.691406 -0.648438 3.386719 -0.648438 Z M 4.058594 -9.707031 L 2.9375 -7.640625 L 3.832031 -7.640625 L 5.003906 -9.707031 Z M 4.058594 -9.707031 "/></g></g></g><g fill="#ffecf9" fill-opacity="1"><g transform="translate(152.978001, 53.192218)"><g><path d="M 0.910156 0 L 1.78125 0 L 1.78125 -6.59375 L 0.910156 -6.59375 Z M 1.902344 -9.269531 L 0.785156 -9.269531 L 0.785156 -8.152344 L 1.902344 -8.152344 Z M 1.902344 -9.269531 "/></g></g></g><g fill="#ffecf9" fill-opacity="1"><g transform="translate(155.664386, 53.192218)"><g><path d="M 4.929688 0 L 5.648438 0 L 5.574219 -1.867188 L 5.574219 -4.28125 C 5.574219 -5.738281 5.015625 -6.730469 3.1875 -6.730469 C 1.246094 -6.730469 0.808594 -5.523438 0.808594 -4.53125 L 0.808594 -4.417969 L 1.644531 -4.417969 C 1.644531 -5.277344 1.929688 -6 3.171875 -6 C 4.34375 -6 4.703125 -5.414062 4.703125 -4.28125 L 4.703125 -4.105469 L 2.710938 -3.796875 C 1.644531 -3.632812 0.558594 -3.222656 0.558594 -1.792969 L 0.558594 -1.667969 C 0.558594 -0.609375 1.257812 0.136719 2.464844 0.136719 C 3.609375 0.136719 4.355469 -0.347656 4.792969 -0.921875 Z M 2.6875 -0.621094 C 1.804688 -0.621094 1.429688 -1.15625 1.429688 -1.742188 L 1.429688 -1.855469 C 1.429688 -2.601562 1.941406 -3.011719 2.789062 -3.160156 L 4.703125 -3.472656 L 4.703125 -1.667969 C 4.46875 -1.28125 3.90625 -0.621094 2.6875 -0.621094 Z M 2.6875 -0.621094 "/></g></g></g><g fill="#ffecf9" fill-opacity="1"><g transform="translate(162.032102, 53.192218)"><g><path d="M 3.246094 -0.597656 C 1.941406 -0.597656 1.582031 -1.292969 1.582031 -2.015625 L 0.710938 -2.015625 L 0.710938 -1.964844 C 0.710938 -0.957031 1.382812 0.136719 3.246094 0.136719 C 4.878906 0.136719 5.785156 -0.660156 5.785156 -1.804688 L 5.785156 -1.867188 C 5.785156 -3.074219 5.078125 -3.546875 3.421875 -3.683594 C 1.992188 -3.796875 1.667969 -4.167969 1.667969 -4.851562 C 1.667969 -5.585938 2.253906 -6 3.246094 -6 C 4.480469 -6 4.851562 -5.414062 4.851562 -4.46875 L 5.710938 -4.46875 L 5.710938 -4.515625 C 5.710938 -5.8125 5.050781 -6.730469 3.246094 -6.730469 C 1.703125 -6.730469 0.796875 -6 0.796875 -4.851562 L 0.796875 -4.777344 C 0.796875 -3.796875 1.308594 -3.171875 3.085938 -3.023438 C 4.367188 -2.910156 4.890625 -2.699219 4.890625 -1.804688 C 4.890625 -1.070312 4.316406 -0.597656 3.246094 -0.597656 Z M 3.246094 -0.597656 "/></g></g></g><g fill="#ffecf9" fill-opacity="1"><g transform="translate(168.524184, 53.192218)"><g/></g></g><g fill="#ffecf9" fill-opacity="1"><g transform="translate(171.011575, 53.192218)"><g><path d="M 6.160156 -2.9375 L 6.160156 -3.433594 C 6.160156 -5.265625 5.324219 -6.730469 3.398438 -6.730469 C 1.46875 -6.730469 0.609375 -5.265625 0.609375 -3.433594 L 0.609375 -3.160156 C 0.609375 -1.332031 1.46875 0.136719 3.460938 0.136719 C 5.3125 0.136719 6.160156 -1.046875 6.160156 -2.066406 L 6.160156 -2.117188 L 5.324219 -2.117188 C 5.324219 -1.40625 4.777344 -0.597656 3.460938 -0.597656 C 2.140625 -0.597656 1.53125 -1.492188 1.492188 -2.9375 Z M 3.386719 -6 C 4.640625 -6 5.226562 -5.089844 5.277344 -3.660156 L 1.492188 -3.660156 C 1.53125 -5.089844 2.140625 -6 3.386719 -6 Z M 3.386719 -6 "/></g></g></g><g fill="#ffecf9" fill-opacity="1"><g transform="translate(177.777279, 53.192218)"><g/></g></g><g fill="#ffecf9" fill-opacity="1"><g transform="translate(180.26467, 53.192218)"><g><path d="M 4.929688 0 L 5.648438 0 L 5.574219 -1.867188 L 5.574219 -4.28125 C 5.574219 -5.738281 5.015625 -6.730469 3.1875 -6.730469 C 1.246094 -6.730469 0.808594 -5.523438 0.808594 -4.53125 L 0.808594 -4.417969 L 1.644531 -4.417969 C 1.644531 -5.277344 1.929688 -6 3.171875 -6 C 4.34375 -6 4.703125 -5.414062 4.703125 -4.28125 L 4.703125 -4.105469 L 2.710938 -3.796875 C 1.644531 -3.632812 0.558594 -3.222656 0.558594 -1.792969 L 0.558594 -1.667969 C 0.558594 -0.609375 1.257812 0.136719 2.464844 0.136719 C 3.609375 0.136719 4.355469 -0.347656 4.792969 -0.921875 Z M 2.6875 -0.621094 C 1.804688 -0.621094 1.429688 -1.15625 1.429688 -1.742188 L 1.429688 -1.855469 C 1.429688 -2.601562 1.941406 -3.011719 2.789062 -3.160156 L 4.703125 -3.472656 L 4.703125 -1.667969 C 4.46875 -1.28125 3.90625 -0.621094 2.6875 -0.621094 Z M 2.6875 -0.621094 "/></g></g></g><g fill="#ffecf9" fill-opacity="1"><g transform="translate(186.632386, 53.192218)"><g><path d="M 1.492188 -3.148438 L 1.492188 -3.445312 C 1.492188 -4.953125 2.066406 -5.949219 3.371094 -5.949219 C 4.566406 -5.949219 5.050781 -5.1875 5.050781 -4.179688 L 5.886719 -4.179688 L 5.886719 -4.429688 C 5.886719 -5.5 5.175781 -6.730469 3.359375 -6.730469 C 1.429688 -6.730469 0.609375 -5.277344 0.609375 -3.445312 L 0.609375 -3.148438 C 0.609375 -1.320312 1.429688 0.136719 3.359375 0.136719 C 5.175781 0.136719 5.886719 -1.046875 5.886719 -2.089844 L 5.886719 -2.289062 L 5.050781 -2.289062 C 5.050781 -1.429688 4.605469 -0.648438 3.371094 -0.648438 C 2.066406 -0.648438 1.492188 -1.644531 1.492188 -3.148438 Z M 1.492188 -3.148438 "/></g></g></g><g fill="#ffecf9" fill-opacity="1"><g transform="translate(193.124468, 53.192218)"><g><path d="M 6.160156 -2.9375 L 6.160156 -3.433594 C 6.160156 -5.265625 5.324219 -6.730469 3.398438 -6.730469 C 1.46875 -6.730469 0.609375 -5.265625 0.609375 -3.433594 L 0.609375 -3.160156 C 0.609375 -1.332031 1.46875 0.136719 3.460938 0.136719 C 5.3125 0.136719 6.160156 -1.046875 6.160156 -2.066406 L 6.160156 -2.117188 L 5.324219 -2.117188 C 5.324219 -1.40625 4.777344 -0.597656 3.460938 -0.597656 C 2.140625 -0.597656 1.53125 -1.492188 1.492188 -2.9375 Z M 3.386719 -6 C 4.640625 -6 5.226562 -5.089844 5.277344 -3.660156 L 1.492188 -3.660156 C 1.53125 -5.089844 2.140625 -6 3.386719 -6 Z M 3.386719 -6 "/></g></g></g><g fill="#ffecf9" fill-opacity="1"><g transform="translate(199.890172, 53.192218)"><g><path d="M 3.246094 -0.597656 C 1.941406 -0.597656 1.582031 -1.292969 1.582031 -2.015625 L 0.710938 -2.015625 L 0.710938 -1.964844 C 0.710938 -0.957031 1.382812 0.136719 3.246094 0.136719 C 4.878906 0.136719 5.785156 -0.660156 5.785156 -1.804688 L 5.785156 -1.867188 C 5.785156 -3.074219 5.078125 -3.546875 3.421875 -3.683594 C 1.992188 -3.796875 1.667969 -4.167969 1.667969 -4.851562 C 1.667969 -5.585938 2.253906 -6 3.246094 -6 C 4.480469 -6 4.851562 -5.414062 4.851562 -4.46875 L 5.710938 -4.46875 L 5.710938 -4.515625 C 5.710938 -5.8125 5.050781 -6.730469 3.246094 -6.730469 C 1.703125 -6.730469 0.796875 -6 0.796875 -4.851562 L 0.796875 -4.777344 C 0.796875 -3.796875 1.308594 -3.171875 3.085938 -3.023438 C 4.367188 -2.910156 4.890625 -2.699219 4.890625 -1.804688 C 4.890625 -1.070312 4.316406 -0.597656 3.246094 -0.597656 Z M 3.246094 -0.597656 "/></g></g></g><g fill="#ffecf9" fill-opacity="1"><g transform="translate(206.382254, 53.192218)"><g><path d="M 3.246094 -0.597656 C 1.941406 -0.597656 1.582031 -1.292969 1.582031 -2.015625 L 0.710938 -2.015625 L 0.710938 -1.964844 C 0.710938 -0.957031 1.382812 0.136719 3.246094 0.136719 C 4.878906 0.136719 5.785156 -0.660156 5.785156 -1.804688 L 5.785156 -1.867188 C 5.785156 -3.074219 5.078125 -3.546875 3.421875 -3.683594 C 1.992188 -3.796875 1.667969 -4.167969 1.667969 -4.851562 C 1.667969 -5.585938 2.253906 -6 3.246094 -6 C 4.480469 -6 4.851562 -5.414062 4.851562 -4.46875 L 5.710938 -4.46875 L 5.710938 -4.515625 C 5.710938 -5.8125 5.050781 -6.730469 3.246094 -6.730469 C 1.703125 -6.730469 0.796875 -6 0.796875 -4.851562 L 0.796875 -4.777344 C 0.796875 -3.796875 1.308594 -3.171875 3.085938 -3.023438 C 4.367188 -2.910156 4.890625 -2.699219 4.890625 -1.804688 C 4.890625 -1.070312 4.316406 -0.597656 3.246094 -0.597656 Z M 3.246094 -0.597656 "/></g></g></g><g fill="#ffecf9" fill-opacity="1"><g transform="translate(212.874336, 53.192218)"><g><path d="M 3.386719 0.136719 C 5.324219 0.136719 6.160156 -1.320312 6.160156 -3.148438 L 6.160156 -3.445312 C 6.160156 -5.277344 5.324219 -6.730469 3.386719 -6.730469 C 1.445312 -6.730469 0.609375 -5.277344 0.609375 -3.445312 L 0.609375 -3.148438 C 0.609375 -1.320312 1.445312 0.136719 3.386719 0.136719 Z M 3.386719 -0.648438 C 2.078125 -0.648438 1.492188 -1.644531 1.492188 -3.148438 L 1.492188 -3.445312 C 1.492188 -4.953125 2.078125 -5.949219 3.386719 -5.949219 C 4.691406 -5.949219 5.277344 -4.953125 5.277344 -3.445312 L 5.277344 -3.148438 C 5.277344 -1.644531 4.691406 -0.648438 3.386719 -0.648438 Z M 4.058594 -9.707031 L 2.9375 -7.640625 L 3.832031 -7.640625 L 5.003906 -9.707031 Z M 4.058594 -9.707031 "/></g></g></g><g fill="#ffecf9" fill-opacity="1"><g transform="translate(219.64004, 53.192218)"><g><path d="M 3.433594 -6.730469 C 2.550781 -6.730469 1.941406 -6.273438 1.59375 -5.722656 L 1.46875 -6.59375 L 0.746094 -6.59375 L 0.820312 -4.730469 L 0.820312 0 L 1.691406 0 L 1.691406 -4.890625 C 1.964844 -5.324219 2.453125 -5.886719 3.445312 -5.886719 L 3.621094 -5.886719 L 3.621094 -6.71875 C 3.609375 -6.71875 3.523438 -6.730469 3.433594 -6.730469 Z M 3.433594 -6.730469 "/></g></g></g><g fill="#ffecf9" fill-opacity="1"><g transform="translate(223.781548, 53.192218)"><g><path d="M 0.910156 0 L 1.78125 0 L 1.78125 -6.59375 L 0.910156 -6.59375 Z M 1.902344 -9.269531 L 0.785156 -9.269531 L 0.785156 -8.152344 L 1.902344 -8.152344 Z M 1.902344 -9.269531 "/></g></g></g><g fill="#ffecf9" fill-opacity="1"><g transform="translate(226.467933, 53.192218)"><g><path d="M 3.386719 0.136719 C 5.324219 0.136719 6.160156 -1.320312 6.160156 -3.148438 L 6.160156 -3.445312 C 6.160156 -5.277344 5.324219 -6.730469 3.386719 -6.730469 C 1.445312 -6.730469 0.609375 -5.277344 0.609375 -3.445312 L 0.609375 -3.148438 C 0.609375 -1.320312 1.445312 0.136719 3.386719 0.136719 Z M 3.386719 -0.648438 C 2.078125 -0.648438 1.492188 -1.644531 1.492188 -3.148438 L 1.492188 -3.445312 C 1.492188 -4.953125 2.078125 -5.949219 3.386719 -5.949219 C 4.691406 -5.949219 5.277344 -4.953125 5.277344 -3.445312 L 5.277344 -3.148438 C 5.277344 -1.644531 4.691406 -0.648438 3.386719 -0.648438 Z M 3.386719 -0.648438 "/></g></g></g><g fill="#ffecf9" fill-opacity="1"><g transform="translate(233.233637, 53.192218)"><g><path d="M 3.246094 -0.597656 C 1.941406 -0.597656 1.582031 -1.292969 1.582031 -2.015625 L 0.710938 -2.015625 L 0.710938 -1.964844 C 0.710938 -0.957031 1.382812 0.136719 3.246094 0.136719 C 4.878906 0.136719 5.785156 -0.660156 5.785156 -1.804688 L 5.785156 -1.867188 C 5.785156 -3.074219 5.078125 -3.546875 3.421875 -3.683594 C 1.992188 -3.796875 1.667969 -4.167969 1.667969 -4.851562 C 1.667969 -5.585938 2.253906 -6 3.246094 -6 C 4.480469 -6 4.851562 -5.414062 4.851562 -4.46875 L 5.710938 -4.46875 L 5.710938 -4.515625 C 5.710938 -5.8125 5.050781 -6.730469 3.246094 -6.730469 C 1.703125 -6.730469 0.796875 -6 0.796875 -4.851562 L 0.796875 -4.777344 C 0.796875 -3.796875 1.308594 -3.171875 3.085938 -3.023438 C 4.367188 -2.910156 4.890625 -2.699219 4.890625 -1.804688 C 4.890625 -1.070312 4.316406 -0.597656 3.246094 -0.597656 Z M 3.246094 -0.597656 "/></g></g></g></svg>